<svg width="750" height="500" viewBox="0 0 750 500" fill="none" xmlns="http://www.w3.org/2000/svg">
<g clip-path="url(#clip0_26_3720)">
<path d="M549.201 402.188C549.201 407.072 545.242 411.032 540.357 411.032C535.472 411.032 531.513 407.073 531.513 402.188C531.513 397.303 535.473 393.344 540.357 393.344C545.241 393.344 549.201 397.303 549.201 402.188Z" fill="#686DE0"/>
<path d="M556.545 418.497C559.451 418.497 561.806 416.142 561.806 413.236C561.806 410.331 559.451 407.975 556.545 407.975C553.64 407.975 551.284 410.331 551.284 413.236C551.284 416.142 553.64 418.497 556.545 418.497Z" fill="#F9CA24"/>
<path d="M548.212 428.123C548.212 430.292 546.454 432.05 544.285 432.05C542.116 432.05 540.358 430.292 540.358 428.123C540.358 425.954 542.116 424.196 544.285 424.196C546.454 424.196 548.212 425.954 548.212 428.123Z" fill="#F6E58D"/>
<path d="M258.094 373.767C263.131 371.695 265.534 365.933 263.463 360.896C261.391 355.859 255.629 353.456 250.592 355.528C245.556 357.599 243.152 363.362 245.224 368.398C247.295 373.435 253.058 375.838 258.094 373.767Z" fill="#686DE0"/>
<path d="M268.241 374.519C268.241 377.766 265.609 380.398 262.362 380.398C259.115 380.398 256.483 377.766 256.483 374.519C256.483 371.272 259.115 368.64 262.362 368.64C265.609 368.641 268.241 371.273 268.241 374.519Z" fill="#F0932B"/>
<path d="M701.393 150.34C702.391 146.098 699.761 141.85 695.519 140.852C691.277 139.854 687.029 142.484 686.031 146.726C685.033 150.969 687.663 155.217 691.905 156.215C696.147 157.213 700.395 154.583 701.393 150.34Z" fill="#F0932B"/>
<path d="M681.232 132.824C681.232 134.629 679.769 136.092 677.964 136.092C676.159 136.092 674.696 134.629 674.696 132.824C674.696 131.019 676.159 129.556 677.964 129.556C679.769 129.556 681.232 131.019 681.232 132.824Z" fill="#F6E58D"/>
<path d="M674.48 164.417C678.208 162.865 679.972 158.585 678.419 154.857C676.867 151.13 672.587 149.366 668.86 150.918C665.132 152.47 663.368 156.75 664.92 160.478C666.473 164.206 670.753 165.969 674.48 164.417Z" fill="#686DE0"/>
<path d="M46.6201 237.05C45.8881 238.905 43.7911 239.814 41.9361 239.082C40.0821 238.35 39.1721 236.253 39.9041 234.398C40.6361 232.544 42.7331 231.634 44.5881 232.366C46.4431 233.098 47.3531 235.195 46.6201 237.05Z" fill="#F6E58D"/>
<path d="M52.568 255.966C52.143 257.042 50.926 257.57 49.85 257.145C48.774 256.72 48.246 255.503 48.671 254.427C49.096 253.351 50.313 252.823 51.389 253.248C52.465 253.673 52.993 254.89 52.568 255.966Z" fill="#686DE0"/>
<path d="M65.3271 237.131C63.7911 241.021 59.3921 242.929 55.5031 241.393C51.6131 239.857 49.7051 235.458 51.2411 231.569C52.7771 227.679 57.1761 225.771 61.0651 227.307C64.9551 228.842 66.8631 233.241 65.3271 237.131Z" fill="#F0932B"/>
<path d="M242.871 413.236C242.871 415.17 241.303 416.738 239.369 416.738C237.435 416.738 235.867 415.17 235.867 413.236C235.867 411.302 237.435 409.734 239.369 409.734C241.303 409.734 242.871 411.302 242.871 413.236Z" fill="#F6E58D"/>
<path d="M183.726 250.059C187.959 248.4 190.047 243.623 188.388 239.39C186.729 235.156 181.952 233.069 177.719 234.727C173.485 236.386 171.398 241.163 173.056 245.396C174.715 249.63 179.492 251.718 183.726 250.059Z" fill="#686DE0"/>
<path d="M187.504 213.495H73.292C67.77 213.495 63.293 209.018 63.293 203.496V35.3052C63.293 29.7832 67.77 25.3062 73.292 25.3062H187.504C193.026 25.3062 197.503 29.7832 197.503 35.3052V203.497C197.503 209.019 193.026 213.495 187.504 213.495Z" fill="#535C68"/>
<mask id="mask0_26_3720" style="mask-type:luminance" maskUnits="userSpaceOnUse" x="84" y="18" width="221" height="220">
<path d="M301.182 154.012L220.423 234.772C216.518 238.676 210.187 238.676 206.282 234.772L87.3542 115.844C83.4496 111.939 83.4496 105.608 87.3542 101.703L168.114 20.9438C172.018 17.0392 178.35 17.0392 182.254 20.9438L301.183 139.872C305.087 143.777 305.087 150.108 301.182 154.012Z" fill="white"/>
</mask>
<g mask="url(#mask0_26_3720)">
<path d="M197.912 71.9003C211.924 57.8884 211.924 35.1707 197.912 21.1588C183.9 7.14691 161.183 7.14691 147.171 21.1588C133.159 35.1707 133.159 57.8884 147.171 71.9003C161.183 85.9122 183.9 85.9122 197.912 71.9003Z" fill="#686DE0"/>
</g>
<mask id="mask1_26_3720" style="mask-type:luminance" maskUnits="userSpaceOnUse" x="33" y="-47" width="220" height="191">
<path d="M251.456 31.7965L207.747 137.317C205.634 142.419 199.784 144.842 194.682 142.728L39.2907 78.3618C34.1889 76.2485 31.766 70.3989 33.8792 65.2971L77.5882 -40.2234C79.7014 -45.3252 85.5511 -47.7481 90.6529 -45.6349L246.045 18.7322C251.147 20.8455 253.569 26.6948 251.456 31.7965Z" fill="white"/>
</mask>
<g mask="url(#mask1_26_3720)">
<path d="M110.112 85.8132C116.197 71.1234 109.221 54.2823 94.5315 48.1975C79.8417 42.1126 63.0006 49.0883 56.9157 63.7781C50.8309 78.4678 57.8066 95.3089 72.4963 101.394C87.1861 107.479 104.027 100.503 110.112 85.8132Z" fill="#F9CA24"/>
</g>
<mask id="mask2_26_3720" style="mask-type:luminance" maskUnits="userSpaceOnUse" x="63" y="25" width="135" height="189">
<path d="M187.504 213.495H73.292C67.77 213.495 63.293 209.018 63.293 203.496V35.3052C63.293 29.7832 67.77 25.3062 73.292 25.3062H187.504C193.026 25.3062 197.503 29.7832 197.503 35.3052V203.497C197.503 209.019 193.026 213.495 187.504 213.495Z" fill="white"/>
</mask>
<g mask="url(#mask2_26_3720)">
<path d="M91.524 66.099C121.439 66.099 145.689 41.8485 145.689 11.934C145.689 -17.9805 121.439 -42.231 91.524 -42.231C61.6095 -42.231 37.359 -17.9805 37.359 11.934C37.359 41.8485 61.6095 66.099 91.524 66.099Z" fill="#FF7979"/>
</g>
<mask id="mask3_26_3720" style="mask-type:luminance" maskUnits="userSpaceOnUse" x="26" y="-15" width="213" height="224">
<path d="M234.277 138.758L142.645 206.932C138.215 210.228 131.951 209.308 128.654 204.878L28.2612 69.9382C24.9652 65.5079 25.8847 59.2437 30.315 55.9476L121.947 -12.2255C126.378 -15.5216 132.642 -14.602 135.938 -10.1717L236.332 124.769C239.628 129.199 238.708 135.462 234.277 138.758Z" fill="white"/>
</mask>
<g mask="url(#mask3_26_3720)">
<path d="M108.439 119.467C116.148 113.732 117.747 102.833 112.012 95.1249C106.277 87.4163 95.3791 85.8165 87.6705 91.5515C79.9619 97.2866 78.3621 108.185 84.0972 115.893C89.8322 123.602 100.73 125.202 108.439 119.467Z" fill="#686DE0"/>
</g>
<mask id="mask4_26_3720" style="mask-type:luminance" maskUnits="userSpaceOnUse" x="63" y="25" width="135" height="189">
<path d="M187.504 213.495H73.292C67.77 213.495 63.293 209.018 63.293 203.496V35.3052C63.293 29.7832 67.77 25.3062 73.292 25.3062H187.504C193.026 25.3062 197.503 29.7832 197.503 35.3052V203.497C197.503 209.019 193.026 213.495 187.504 213.495Z" fill="white"/>
</mask>
<g mask="url(#mask4_26_3720)">
<path d="M180.122 83.1302C180.122 86.2852 177.565 88.8422 174.41 88.8422C171.255 88.8422 168.698 86.2852 168.698 83.1302C168.698 79.9752 171.255 77.4182 174.41 77.4182C177.565 77.4182 180.122 79.9752 180.122 83.1302Z" fill="#F9CA24"/>
</g>
<mask id="mask5_26_3720" style="mask-type:luminance" maskUnits="userSpaceOnUse" x="63" y="25" width="135" height="189">
<path d="M187.504 213.495H73.292C67.77 213.495 63.293 209.018 63.293 203.496V35.3052C63.293 29.7832 67.77 25.3062 73.292 25.3062H187.504C193.026 25.3062 197.503 29.7832 197.503 35.3052V203.497C197.503 209.019 193.026 213.495 187.504 213.495Z" fill="white"/>
</mask>
<g mask="url(#mask5_26_3720)">
<path d="M168.067 109.217C170.221 112.948 168.943 117.719 165.212 119.873C161.481 122.027 156.71 120.749 154.556 117.018C152.402 113.287 153.68 108.516 157.411 106.362C161.142 104.207 165.913 105.486 168.067 109.217Z" fill="#FF7979"/>
</g>
<path d="M130.398 84.369C142.403 84.369 152.135 74.637 152.135 62.632C152.135 50.627 142.403 40.895 130.398 40.895C118.393 40.895 108.661 50.627 108.661 62.632C108.661 74.637 118.393 84.369 130.398 84.369Z" fill="#535C68"/>
<mask id="mask6_26_3720" style="mask-type:luminance" maskUnits="userSpaceOnUse" x="108" y="40" width="45" height="45">
<path d="M130.398 84.369C142.403 84.369 152.135 74.637 152.135 62.632C152.135 50.627 142.403 40.895 130.398 40.895C118.393 40.895 108.661 50.627 108.661 62.632C108.661 74.637 118.393 84.369 130.398 84.369Z" fill="white"/>
</mask>
<g mask="url(#mask6_26_3720)">
<path d="M130.398 65.233C134.176 65.233 137.238 62.1706 137.238 58.393C137.238 54.6154 134.176 51.553 130.398 51.553C126.62 51.553 123.558 54.6154 123.558 58.393C123.558 62.1706 126.62 65.233 130.398 65.233Z" fill="white"/>
<path d="M141.889 89.542H118.906V75.856C118.906 71.424 122.499 67.832 126.93 67.832H133.864C138.296 67.832 141.888 71.425 141.888 75.856V89.542H141.889Z" fill="white"/>
</g>
<path d="M177.171 144.854H83.625C81.833 144.854 80.38 143.401 80.38 141.609V132.882C80.38 131.09 81.833 129.637 83.625 129.637H177.171C178.963 129.637 180.416 131.09 180.416 132.882V141.609C180.415 143.402 178.963 144.854 177.171 144.854Z" fill="#95AFC0"/>
<path d="M177.171 169.083H83.625C81.833 169.083 80.38 167.63 80.38 165.838V157.111C80.38 155.319 81.833 153.866 83.625 153.866H177.171C178.963 153.866 180.416 155.319 180.416 157.111V165.838C180.415 167.63 178.963 169.083 177.171 169.083Z" fill="#95AFC0"/>
<path d="M115.546 187.556H83.682C81.859 187.556 80.381 186.078 80.381 184.255C80.381 182.432 81.859 180.954 83.682 180.954H115.546C117.369 180.954 118.847 182.432 118.847 184.255C118.847 186.078 117.369 187.556 115.546 187.556Z" fill="#95AFC0"/>
<path d="M176.162 187.556H144.298C142.475 187.556 140.997 186.078 140.997 184.255C140.997 182.432 142.475 180.954 144.298 180.954H176.162C177.985 180.954 179.463 182.432 179.463 184.255C179.464 186.078 177.986 187.556 176.162 187.556Z" fill="#95AFC0"/>
<path d="M449.443 268.585H223.521C216.278 268.585 210.406 262.713 210.406 255.47V67.9661C210.406 60.7231 216.278 54.8511 223.521 54.8511H449.443C456.686 54.8511 462.558 60.7231 462.558 67.9661V255.47C462.558 262.713 456.687 268.585 449.443 268.585Z" fill="#DFF9FB"/>
<mask id="mask7_26_3720" style="mask-type:luminance" maskUnits="userSpaceOnUse" x="210" y="54" width="253" height="215">
<path d="M449.443 268.585H223.521C216.278 268.585 210.406 262.713 210.406 255.47V67.9661C210.406 60.7231 216.278 54.8511 223.521 54.8511H449.443C456.686 54.8511 462.558 60.7231 462.558 67.9661V255.47C462.558 262.713 456.687 268.585 449.443 268.585Z" fill="white"/>
</mask>
<g mask="url(#mask7_26_3720)">
<path d="M465.334 54.8511H207.843V76.7291H465.334V54.8511Z" fill="#686DE0"/>
</g>
<path d="M232 65.79C232 67.562 230.564 68.998 228.792 68.998C227.02 68.998 225.584 67.562 225.584 65.79C225.584 64.018 227.02 62.582 228.792 62.582C230.564 62.582 232 64.018 232 65.79Z" fill="#EB4D4B"/>
<path d="M245.785 65.79C245.785 67.562 244.349 68.998 242.577 68.998C240.805 68.998 239.369 67.562 239.369 65.79C239.369 64.018 240.805 62.582 242.577 62.582C244.349 62.582 245.785 64.018 245.785 65.79Z" fill="#F9CA24"/>
<path d="M259.571 65.79C259.571 67.562 258.135 68.998 256.363 68.998C254.591 68.998 253.155 67.562 253.155 65.79C253.155 64.018 254.591 62.582 256.363 62.582C258.135 62.582 259.571 64.018 259.571 65.79Z" fill="#F9CA24"/>
<path d="M452.43 84.5081H401.193V135.745H452.43V84.5081Z" fill="#686DE0"/>
<path d="M272.543 207.388H221.306V258.625H272.543V207.388Z" fill="#FF7979"/>
<path d="M272.543 84.5081H221.306V135.745H272.543V84.5081Z" fill="#F9CA24"/>
<path d="M221.306 135.746L272.543 84.5081V135.746H221.306Z" fill="#F0932B"/>
<path d="M332.506 84.5081H281.269V135.745H332.506V84.5081Z" fill="#FF7979"/>
<path d="M302.243 93.718H293.548V126.535H302.243V93.718Z" fill="#DFF9FB"/>
<path d="M320.226 93.718H311.531V126.535H320.226V93.718Z" fill="#DFF9FB"/>
<path d="M392.468 84.5081H341.231V135.745H392.468V84.5081Z" fill="#F6E58D"/>
<path d="M383.539 93.438H350.161V126.816H383.539V93.438Z" fill="#DFF9FB"/>
<path d="M426.812 122.749C433.783 122.749 439.434 117.098 439.434 110.127C439.434 103.156 433.783 97.5051 426.812 97.5051C419.841 97.5051 414.19 103.156 414.19 110.127C414.19 117.098 419.841 122.749 426.812 122.749Z" fill="#F6E58D"/>
<path d="M272.543 143.985H221.306V195.222H272.543V143.985Z" fill="#F6E58D"/>
<path d="M246.925 154.944L229.998 184.263H263.852L246.925 154.944Z" fill="#F0932B"/>
<path d="M332.506 143.985H281.269V195.222H332.506V143.985Z" fill="#686DE0"/>
<path d="M332.506 195.222L281.269 165.364V195.222H332.506Z" fill="#F9CA24"/>
<path d="M392.468 143.985H341.231V195.222H392.468V143.985Z" fill="#F0932B"/>
<path d="M386.796 172.937C386.796 181.147 380.14 187.803 371.93 187.803C363.72 187.803 357.064 181.147 357.064 172.937C357.064 164.727 363.72 158.071 371.93 158.071C380.14 158.071 386.796 164.727 386.796 172.937Z" fill="#F9CA24"/>
<path d="M361.271 195.222L392.468 143.985V195.222H361.271Z" fill="#686DE0"/>
<path d="M452.43 143.985H401.193V195.222H452.43V143.985Z" fill="#FF7979"/>
<path d="M401.193 185.489L452.431 172.937V195.222H401.193V185.489Z" fill="#F9CA24"/>
<path d="M452.431 153.717L401.193 166.269V143.985H452.431V153.717Z" fill="#F9CA24"/>
<path d="M247.322 214.224V232.997H228.132C228.132 243.376 236.546 251.79 246.925 251.79C257.304 251.79 265.718 243.376 265.718 232.997C265.718 222.752 257.516 214.437 247.322 214.224Z" fill="#F9CA24"/>
<path d="M332.506 207.388H281.269V258.625H332.506V207.388Z" fill="#F0932B"/>
<path d="M332.506 233.007H281.269V258.626H332.506V233.007Z" fill="#686DE0"/>
<path d="M392.468 207.388H341.231V258.625H392.468V207.388Z" fill="#686DE0"/>
<path d="M382.752 218.032H350.947V229.198H382.752V218.032Z" fill="#F6E58D"/>
<path d="M382.752 236.815H350.947V247.981H382.752V236.815Z" fill="#F6E58D"/>
<path d="M452.43 207.388H401.193V258.625H452.43V207.388Z" fill="#F6E58D"/>
<path d="M401.193 207.388L452.431 258.625H401.193V207.388Z" fill="#F0932B"/>
<path d="M547.916 125.529H495.194C487.65 125.529 481.534 119.413 481.534 111.869V59.1471C481.534 51.6031 487.65 45.4871 495.194 45.4871H547.916C555.46 45.4871 561.576 51.6031 561.576 59.1471V111.869C561.576 119.413 555.46 125.529 547.916 125.529Z" fill="#686DE0"/>
<path d="M521.555 77.9181C526.95 77.9181 531.323 73.5448 531.323 68.1501C531.323 62.7554 526.95 58.3821 521.555 58.3821C516.16 58.3821 511.787 62.7554 511.787 68.1501C511.787 73.5448 516.16 77.9181 521.555 77.9181Z" fill="white"/>
<path d="M537.965 112.634H505.144V93.0901C505.144 86.7611 510.274 81.6311 516.603 81.6311H526.506C532.835 81.6311 537.965 86.7621 537.965 93.0901V112.634Z" fill="white"/>
<path d="M670.789 104.942H591.526C587.754 104.942 584.695 101.884 584.695 98.1112V39.8852C584.695 36.1122 587.753 33.0542 591.526 33.0542H670.788C674.561 33.0542 677.619 36.1122 677.619 39.8852V98.1122C677.62 101.884 674.561 104.942 670.789 104.942Z" fill="#DFF9FB"/>
<path d="M667.895 100.255H594.42C591.954 100.255 589.956 98.2562 589.956 95.7902V42.2062C589.956 39.7402 591.955 37.7412 594.42 37.7412H667.894C670.36 37.7412 672.358 39.7402 672.358 42.2062V95.7902C672.359 98.2562 670.36 100.255 667.895 100.255Z" fill="#686DE0"/>
<path d="M658.937 66.7405C663.79 63.5397 665.129 57.0108 661.929 52.1578C658.728 47.3048 652.199 45.9655 647.346 49.1663C642.493 52.3671 641.154 58.896 644.354 63.749C647.555 68.602 654.084 69.9413 658.937 66.7405Z" fill="#F6E58D"/>
<mask id="mask8_26_3720" style="mask-type:luminance" maskUnits="userSpaceOnUse" x="589" y="37" width="84" height="64">
<path d="M667.895 100.255H594.42C591.954 100.255 589.956 98.2562 589.956 95.7902V42.2062C589.956 39.7402 591.955 37.7412 594.42 37.7412H667.894C670.36 37.7412 672.358 39.7402 672.358 42.2062V95.7902C672.359 98.2562 670.36 100.255 667.895 100.255Z" fill="white"/>
</mask>
<g mask="url(#mask8_26_3720)">
<path d="M623.207 53.8792L589.396 100.255H657.018L623.207 53.8792Z" fill="#DFF9FB"/>
</g>
<path d="M317.383 326.669C317.313 319.993 311.886 314.601 305.193 314.601C303.406 314.601 301.713 314.995 300.184 315.686C296.822 309.028 289.925 304.459 281.956 304.459C271.72 304.459 263.245 311.994 261.772 321.819C261.172 321.634 260.535 321.533 259.875 321.533C256.77 321.533 254.18 323.739 253.585 326.668H317.383V326.669Z" fill="#DFF9FB"/>
<path d="M309.754 295.324C309.788 292.11 312.401 289.514 315.623 289.514C316.484 289.514 317.299 289.704 318.035 290.036C319.654 286.83 322.975 284.63 326.811 284.63C331.739 284.63 335.82 288.258 336.53 292.989C336.819 292.9 337.125 292.851 337.443 292.851C338.938 292.851 340.185 293.913 340.472 295.324H309.754Z" fill="#DFF9FB"/>
<path d="M227.943 296.601C227.994 291.725 231.958 287.787 236.847 287.787C238.153 287.787 239.389 288.075 240.506 288.579C242.962 283.716 247.999 280.379 253.819 280.379C261.296 280.379 267.486 285.882 268.562 293.059C269 292.924 269.465 292.85 269.948 292.85C272.216 292.85 274.108 294.461 274.542 296.601H227.943Z" fill="#DFF9FB"/>
<path opacity="0.05" d="M707.892 468.909C707.892 472.104 678.585 474.694 642.432 474.694C606.28 474.694 576.972 472.104 576.972 468.909C576.972 465.714 606.279 463.124 642.432 463.124C678.585 463.124 707.892 465.714 707.892 468.909Z" fill="#130F40"/>
<path d="M648.709 190.682H620.681V307.167H648.709V190.682Z" fill="white"/>
<path d="M620.415 191.758C620.415 191.758 623.168 198.768 633.348 198.768C645.708 198.768 649.665 191.78 649.665 191.78" stroke="#7ED6DF" stroke-width="0.5" stroke-miterlimit="10" stroke-linecap="round" stroke-linejoin="round"/>
<path d="M615.671 462.17C615.671 460.505 614.321 459.155 612.656 459.155H603.412C603.412 459.155 590.437 458.586 590.437 469.01H615.671V462.17Z" fill="#DFF9FB"/>
<path d="M590.983 466.546H615.671" stroke="#7ED6DF" stroke-width="0.5" stroke-miterlimit="10" stroke-linecap="round" stroke-linejoin="round"/>
<path d="M598.518 459.702L603.054 466.546" stroke="#7ED6DF" stroke-width="0.5" stroke-miterlimit="10" stroke-linecap="round" stroke-linejoin="round"/>
<path d="M601.913 459.32L604.4 463.124" stroke="#7ED6DF" stroke-width="0.5" stroke-miterlimit="10" stroke-linecap="round" stroke-linejoin="round"/>
<path d="M605.542 459.32L608.029 463.124" stroke="#7ED6DF" stroke-width="0.5" stroke-miterlimit="10" stroke-linecap="round" stroke-linejoin="round"/>
<path d="M650.913 164.372C652.785 152.8 644.921 141.901 633.349 140.029C621.777 138.157 610.878 146.021 609.006 157.593C607.134 169.165 614.998 180.064 626.57 181.936C638.142 183.808 649.041 175.944 650.913 164.372Z" fill="#130F40"/>
<path d="M620.025 163.519C620.025 163.519 614.107 157.58 612.416 161.34C611.01 164.467 618.392 167.815 618.392 167.815L620.025 163.519Z" fill="#FFC2BD"/>
<path d="M614.173 162.098L617.618 163.967" stroke="#FF7979" stroke-width="0.5" stroke-miterlimit="10" stroke-linecap="round" stroke-linejoin="round"/>
<path d="M586.399 439.067H635.672L653.661 307.168H604.389L586.399 439.067Z" fill="#FFBE76"/>
<path d="M707.892 439.067H658.619L640.63 307.168H689.902L707.892 439.067Z" fill="#FFBE76"/>
<path d="M647.145 354.941L643.628 329.155" stroke="#130F40" stroke-width="0.5" stroke-miterlimit="10" stroke-linecap="round" stroke-linejoin="round"/>
<path d="M688.885 439.067L668.166 307.168" stroke="#130F40" stroke-width="0.5" stroke-miterlimit="10" stroke-linecap="round" stroke-linejoin="round"/>
<path d="M610.555 439.067L623.188 349.618" stroke="#130F40" stroke-width="0.5" stroke-miterlimit="10" stroke-linecap="round" stroke-linejoin="round"/>
<path d="M711.879 428.959H653.661V440.582H711.879V428.959Z" fill="#F6E58D"/>
<path d="M639.664 428.959H581.446V440.582H639.664V428.959Z" fill="#F6E58D"/>
<path opacity="0.1" d="M640.63 402.714L644.082 332.481L647.145 354.941L640.63 402.714Z" fill="black"/>
<path opacity="0.1" d="M594.849 377.111H605.872C610.076 377.111 613.484 373.703 613.484 369.499V361.024H596.91L594.849 377.111Z" fill="black"/>
<path d="M620.681 190.682V325.108H596.91V231.111L620.681 190.682Z" fill="#686DE0"/>
<path d="M620.681 190.682L610.509 192.482C599.104 194.501 589.591 202.35 585.443 213.164L569.578 254.527H604.92L620.681 190.682Z" fill="#686DE0"/>
<path d="M606.701 367.598H482.123C478.377 367.598 475.339 364.561 475.339 360.815V144.151C475.339 140.404 478.376 137.367 482.123 137.367H606.701C610.448 137.367 613.485 140.404 613.485 144.151V360.814C613.484 364.56 610.447 367.598 606.701 367.598Z" fill="#535C68"/>
<path d="M484.72 161.245V367.598" stroke="white" stroke-width="0.5" stroke-miterlimit="10"/>
<path d="M497.334 170.581H493.734V172.239H497.334V170.581Z" fill="#C7ECEE"/>
<path d="M513.295 170.581H500.029V172.239H513.295V170.581Z" fill="#F9CA24"/>
<path d="M529.255 172.239H542.356V170.581H529.255H529.09H515.99V172.239H529.09H529.255Z" fill="#E056FD"/>
<path d="M497.334 186.7H493.734V188.358H497.334V186.7Z" fill="#C7ECEE"/>
<path d="M513.295 186.7H500.029V188.358H513.295V186.7Z" fill="#686DE0"/>
<path d="M529.09 186.7H515.99V188.359H529.09H529.255H542.356V186.7H529.255H529.09Z" fill="#BADC58"/>
<path d="M553.031 186.7H545.05V188.359H553.031H558.316H566.296V186.7H558.316H553.031Z" fill="#F9CA24"/>
<path d="M582.257 186.7H568.991V188.358H582.257V186.7Z" fill="#EB4D4B"/>
<path d="M590.437 186.7H584.951V188.358H590.437V186.7Z" fill="#E056FD"/>
<path d="M497.334 174.611H493.734V176.269H497.334V174.611Z" fill="#C7ECEE"/>
<path d="M513.295 176.269H525.058V174.611H513.295H511.792H500.029V176.269H511.792H513.295Z" fill="#E056FD"/>
<path d="M541.018 176.269H553.196V174.611H541.018H539.93H527.753V176.269H539.93H541.018Z" fill="#EB4D4B"/>
<path d="M561.176 174.611H555.89V176.269H561.176V174.611Z" fill="#BADC58"/>
<path d="M569.156 174.611H563.87V176.269H569.156V174.611Z" fill="#BADC58"/>
<path d="M497.334 178.641H493.734V180.299H497.334V178.641Z" fill="#C7ECEE"/>
<path d="M510.476 178.641H500.029V180.299H510.476V178.641Z" fill="#EB4D4B"/>
<path d="M526.561 178.641H513.295V180.299H526.561V178.641Z" fill="#686DE0"/>
<path d="M555.786 178.641H542.521H529.255V180.299H542.521H555.786V178.641Z" fill="#F9CA24"/>
<path d="M563.206 178.641H558.533V180.299H563.206V178.641Z" fill="#E056FD"/>
<path d="M497.334 166.865H493.734V168.523H497.334V166.865Z" fill="#C7ECEE"/>
<path d="M507.361 166.865H500.029V168.523H507.361V166.865Z" fill="#686DE0"/>
<path d="M514.379 166.865H510.056V168.523H514.379V166.865Z" fill="#EB4D4B"/>
<path d="M526.285 166.865H516.938V168.523H526.285V166.865Z" fill="#F9CA24"/>
<path d="M497.334 182.671H493.734V184.329H497.334V182.671Z" fill="#C7ECEE"/>
<path d="M521.612 182.671H513.295H513.139H500.029V184.329H513.139H513.295H521.612V182.671Z" fill="#E056FD"/>
<path d="M529.255 182.671H524.331V184.329H529.255V182.671Z" fill="#EB4D4B"/>
<path d="M534.734 182.671H531.95V184.329H534.734V182.671Z" fill="white"/>
<path d="M550.736 182.671H537.47V184.329H550.736V182.671Z" fill="#686DE0"/>
<path d="M497.334 196.079H493.734V197.737H497.334V196.079Z" fill="#C7ECEE"/>
<path d="M513.295 196.079H500.029V197.737H513.295V196.079Z" fill="#F9CA24"/>
<path d="M497.334 212.198H493.734V213.856H497.334V212.198Z" fill="#C7ECEE"/>
<path d="M513.295 212.198H500.029V213.856H513.295V212.198Z" fill="#686DE0"/>
<path d="M529.09 212.198H515.99V213.856H529.09H529.255H542.356V212.198H529.255H529.09Z" fill="#BADC58"/>
<path d="M558.216 212.198H544.95V213.856H558.216V212.198Z" fill="#EB4D4B"/>
<path d="M566.396 212.198H560.91V213.856H566.396V212.198Z" fill="#E056FD"/>
<path d="M497.334 200.109H493.734V201.767H497.334V200.109Z" fill="#C7ECEE"/>
<path d="M513.295 201.767H525.058V200.109H513.295H511.792H500.029V201.767H511.792H513.295Z" fill="#E056FD"/>
<path d="M497.334 204.138H493.734V205.796H497.334V204.138Z" fill="#C7ECEE"/>
<path d="M510.476 204.138H500.029V205.796H510.476V204.138Z" fill="#EB4D4B"/>
<path d="M526.561 204.138H513.295V205.796H526.561V204.138Z" fill="#686DE0"/>
<path d="M555.786 204.138H542.521H529.255V205.797H542.521H555.786V204.138Z" fill="#F9CA24"/>
<path d="M563.206 204.138H558.533V205.796H563.206V204.138Z" fill="#E056FD"/>
<path d="M497.334 192.363H493.734V194.021H497.334V192.363Z" fill="#C7ECEE"/>
<path d="M507.361 192.363H500.029V194.021H507.361V192.363Z" fill="#686DE0"/>
<path d="M514.379 192.363H510.056V194.021H514.379V192.363Z" fill="#EB4D4B"/>
<path d="M526.285 192.363H516.938V194.021H526.285V192.363Z" fill="#F9CA24"/>
<path d="M497.334 208.168H493.734V209.826H497.334V208.168Z" fill="#C7ECEE"/>
<path d="M521.612 208.168H513.295H513.139H500.029V209.826H513.139H513.295H521.612V208.168Z" fill="#E056FD"/>
<path d="M529.255 208.168H524.331V209.826H529.255V208.168Z" fill="#EB4D4B"/>
<path d="M534.734 208.168H531.95V209.826H534.734V208.168Z" fill="white"/>
<path d="M550.736 208.168H537.47V209.826H550.736V208.168Z" fill="#686DE0"/>
<path d="M497.334 221.577H493.734V223.235H497.334V221.577Z" fill="#C7ECEE"/>
<path d="M513.295 221.577H500.029V223.235H513.295V221.577Z" fill="#F9CA24"/>
<path d="M529.255 223.235H537.235V221.577H529.255H523.97H515.99V223.235H523.97H529.255Z" fill="#EB4D4B"/>
<path d="M553.196 221.577H539.93V223.235H553.196V221.577Z" fill="#E056FD"/>
<path d="M561.376 221.577H555.89V223.235H561.376V221.577Z" fill="#686DE0"/>
<path d="M497.334 237.696H493.734V239.354H497.334V237.696Z" fill="#C7ECEE"/>
<path d="M513.295 237.696H500.029V239.354H513.295V237.696Z" fill="#686DE0"/>
<path d="M497.334 225.606H493.734V227.264H497.334V225.606Z" fill="#C7ECEE"/>
<path d="M513.295 227.265H525.058V225.606H513.295H511.792H500.029V227.265H511.792H513.295Z" fill="#E056FD"/>
<path d="M541.018 227.265H553.196V225.606H541.018H539.93H527.753V227.265H539.93H541.018Z" fill="#EB4D4B"/>
<path d="M561.176 225.606H555.89V227.264H561.176V225.606Z" fill="#BADC58"/>
<path d="M569.156 225.606H563.87V227.264H569.156V225.606Z" fill="#BADC58"/>
<path d="M497.334 229.636H493.734V231.294H497.334V229.636Z" fill="#C7ECEE"/>
<path d="M510.476 229.636H500.029V231.294H510.476V229.636Z" fill="#EB4D4B"/>
<path d="M526.561 229.636H513.295V231.294H526.561V229.636Z" fill="#686DE0"/>
<path d="M555.786 229.636H542.521H529.255V231.294H542.521H555.786V229.636Z" fill="#F9CA24"/>
<path d="M563.206 229.636H558.533V231.294H563.206V229.636Z" fill="#E056FD"/>
<path d="M497.334 217.861H493.734V219.519H497.334V217.861Z" fill="#C7ECEE"/>
<path d="M507.361 217.861H500.029V219.519H507.361V217.861Z" fill="#686DE0"/>
<path d="M514.379 217.861H510.056V219.519H514.379V217.861Z" fill="#EB4D4B"/>
<path d="M526.285 217.861H516.938V219.519H526.285V217.861Z" fill="#F9CA24"/>
<path d="M497.334 241.429H493.734V243.087H497.334V241.429Z" fill="#C7ECEE"/>
<path d="M507.361 241.429H500.029V243.087H507.361V241.429Z" fill="#686DE0"/>
<path d="M514.379 241.429H510.056V243.087H514.379V241.429Z" fill="#EB4D4B"/>
<path d="M497.334 233.666H493.734V235.324H497.334V233.666Z" fill="#C7ECEE"/>
<path d="M521.612 233.666H513.295H513.139H500.029V235.324H513.139H513.295H521.612V233.666Z" fill="#E056FD"/>
<path d="M497.334 251.601H493.734V253.259H497.334V251.601Z" fill="#C7ECEE"/>
<path d="M513.295 318.733H500.029V320.391H513.295V318.733Z" fill="#F9CA24"/>
<path d="M529.255 318.733H542.356V320.391H529.255H529.09H515.99V318.733H529.09H529.255Z" fill="#E056FD"/>
<path d="M497.334 267.72H493.734V269.378H497.334V267.72Z" fill="#C7ECEE"/>
<path d="M513.295 302.614H500.029V304.272H513.295V302.614Z" fill="#686DE0"/>
<path d="M529.09 304.272H515.99V302.614H529.09H529.255H542.356V304.272H529.255H529.09Z" fill="#BADC58"/>
<path d="M553.031 304.272H545.05V302.614H553.031H558.316H566.296V304.272H558.316H553.031Z" fill="#F9CA24"/>
<path d="M582.257 302.614H568.991V304.272H582.257V302.614Z" fill="#EB4D4B"/>
<path d="M590.437 302.614H584.951V304.272H590.437V302.614Z" fill="#E056FD"/>
<path d="M497.334 255.631H493.734V257.289H497.334V255.631Z" fill="#C7ECEE"/>
<path d="M513.295 314.703H525.058V316.361H513.295H511.792H500.029V314.703H511.792H513.295Z" fill="#E056FD"/>
<path d="M541.018 314.703H553.196V316.361H541.018H539.93H527.753V314.703H539.93H541.018Z" fill="#EB4D4B"/>
<path d="M561.176 314.703H555.89V316.361H561.176V314.703Z" fill="#BADC58"/>
<path d="M569.156 314.703H563.87V316.361H569.156V314.703Z" fill="#BADC58"/>
<path d="M497.334 259.661H493.734V261.319H497.334V259.661Z" fill="#C7ECEE"/>
<path d="M510.476 310.673H500.029V312.331H510.476V310.673Z" fill="#EB4D4B"/>
<path d="M526.561 310.673H513.295V312.331H526.561V310.673Z" fill="#686DE0"/>
<path d="M555.786 312.332H542.521H529.255V310.673H542.521H555.786V312.332Z" fill="#F9CA24"/>
<path d="M563.206 310.673H558.533V312.331H563.206V310.673Z" fill="#E056FD"/>
<path d="M497.334 247.886H493.734V249.544H497.334V247.886Z" fill="#C7ECEE"/>
<path d="M507.361 322.449H500.029V324.107H507.361V322.449Z" fill="#686DE0"/>
<path d="M514.379 322.449H510.056V324.107H514.379V322.449Z" fill="#EB4D4B"/>
<path d="M526.285 322.449H516.938V324.107H526.285V322.449Z" fill="#F9CA24"/>
<path d="M497.334 263.691H493.734V265.349H497.334V263.691Z" fill="#C7ECEE"/>
<path d="M521.612 308.302H513.295H513.139H500.029V306.644H513.139H513.295H521.612V308.302Z" fill="#E056FD"/>
<path d="M529.255 306.644H524.331V308.302H529.255V306.644Z" fill="#EB4D4B"/>
<path d="M534.734 306.644H531.95V308.302H534.734V306.644Z" fill="white"/>
<path d="M550.736 306.644H537.47V308.302H550.736V306.644Z" fill="#686DE0"/>
<path d="M497.334 277.099H493.734V278.757H497.334V277.099Z" fill="#C7ECEE"/>
<path d="M513.295 293.235H500.029V294.893H513.295V293.235Z" fill="#F9CA24"/>
<path d="M497.334 293.218H493.734V294.876H497.334V293.218Z" fill="#C7ECEE"/>
<path d="M513.295 277.116H500.029V278.774H513.295V277.116Z" fill="#686DE0"/>
<path d="M529.09 278.775H515.99V277.116H529.09H529.255H542.356V278.775H529.255H529.09Z" fill="#BADC58"/>
<path d="M558.216 277.116H544.95V278.774H558.216V277.116Z" fill="#EB4D4B"/>
<path d="M566.396 277.116H560.91V278.774H566.396V277.116Z" fill="#E056FD"/>
<path d="M497.334 281.129H493.734V282.787H497.334V281.129Z" fill="#C7ECEE"/>
<path d="M513.295 289.205H525.058V290.864H513.295H511.792H500.029V289.205H511.792H513.295Z" fill="#E056FD"/>
<path d="M497.334 285.158H493.734V286.816H497.334V285.158Z" fill="#C7ECEE"/>
<path d="M510.476 285.176H500.029V286.834H510.476V285.176Z" fill="#EB4D4B"/>
<path d="M526.561 285.176H513.295V286.834H526.561V285.176Z" fill="#686DE0"/>
<path d="M555.786 286.834H542.521H529.255V285.176H542.521H555.786V286.834Z" fill="#F9CA24"/>
<path d="M563.206 285.176H558.533V286.834H563.206V285.176Z" fill="#E056FD"/>
<path d="M497.334 273.383H493.734V275.041H497.334V273.383Z" fill="#C7ECEE"/>
<path d="M507.361 296.951H500.029V298.609H507.361V296.951Z" fill="#686DE0"/>
<path d="M514.379 296.951H510.056V298.609H514.379V296.951Z" fill="#EB4D4B"/>
<path d="M526.285 296.951H516.938V298.609H526.285V296.951Z" fill="#F9CA24"/>
<path d="M497.334 289.188H493.734V290.846H497.334V289.188Z" fill="#C7ECEE"/>
<path d="M521.612 282.804H513.295H513.139H500.029V281.146H513.139H513.295H521.612V282.804Z" fill="#E056FD"/>
<path d="M529.255 281.146H524.331V282.804H529.255V281.146Z" fill="#EB4D4B"/>
<path d="M534.734 281.146H531.95V282.804H534.734V281.146Z" fill="white"/>
<path d="M550.736 281.146H537.47V282.804H550.736V281.146Z" fill="#686DE0"/>
<path d="M497.334 302.597H493.734V304.255H497.334V302.597Z" fill="#C7ECEE"/>
<path d="M513.295 267.738H500.029V269.396H513.295V267.738Z" fill="#F9CA24"/>
<path d="M529.255 267.738H537.235V269.396H529.255H523.97H515.99V267.738H523.97H529.255Z" fill="#EB4D4B"/>
<path d="M553.196 267.738H539.93V269.396H553.196V267.738Z" fill="#E056FD"/>
<path d="M561.376 269.396H555.89V267.738H561.376V269.396Z" fill="#686DE0"/>
<path d="M497.334 318.716H493.734V320.374H497.334V318.716Z" fill="#C7ECEE"/>
<path d="M513.295 251.619H500.029V253.277H513.295V251.619Z" fill="#686DE0"/>
<path d="M497.334 306.626H493.734V308.284H497.334V306.626Z" fill="#C7ECEE"/>
<path d="M513.295 263.708H525.058V265.366H513.295H511.792H500.029V263.708H511.792H513.295Z" fill="#E056FD"/>
<path d="M541.018 263.708H553.196V265.366H541.018H539.93H527.753V263.708H539.93H541.018Z" fill="#EB4D4B"/>
<path d="M561.176 263.708H555.89V265.366H561.176V263.708Z" fill="#BADC58"/>
<path d="M569.156 263.708H563.87V265.366H569.156V263.708Z" fill="#BADC58"/>
<path d="M497.334 310.656H493.734V312.314H497.334V310.656Z" fill="#C7ECEE"/>
<path d="M510.476 259.678H500.029V261.336H510.476V259.678Z" fill="#EB4D4B"/>
<path d="M526.561 259.678H513.295V261.336H526.561V259.678Z" fill="#686DE0"/>
<path d="M555.786 261.336H542.521H529.255V259.678H542.521H555.786V261.336Z" fill="#F9CA24"/>
<path d="M563.206 259.678H558.533V261.336H563.206V259.678Z" fill="#E056FD"/>
<path d="M497.334 298.881H493.734V300.539H497.334V298.881Z" fill="#C7ECEE"/>
<path d="M507.361 271.453H500.029V273.111H507.361V271.453Z" fill="#686DE0"/>
<path d="M514.379 271.453H510.056V273.111H514.379V271.453Z" fill="#EB4D4B"/>
<path d="M526.285 271.453H516.938V273.111H526.285V271.453Z" fill="#F9CA24"/>
<path d="M497.334 322.449H493.734V324.107H497.334V322.449Z" fill="#C7ECEE"/>
<path d="M507.361 247.886H500.029V249.544H507.361V247.886Z" fill="#686DE0"/>
<path d="M514.379 247.886H510.056V249.544H514.379V247.886Z" fill="#EB4D4B"/>
<path d="M497.334 314.686H493.734V316.344H497.334V314.686Z" fill="#C7ECEE"/>
<path d="M521.612 257.307H513.295H513.139H500.029V255.648H513.139H513.295H521.612V257.307Z" fill="#E056FD"/>
<path d="M529.255 255.648H524.331V257.306H529.255V255.648Z" fill="#EB4D4B"/>
<mask id="mask9_26_3720" style="mask-type:luminance" maskUnits="userSpaceOnUse" x="475" y="137" width="139" height="231">
<path d="M606.701 367.598H482.123C478.377 367.598 475.339 364.561 475.339 360.815V144.151C475.339 140.404 478.376 137.367 482.123 137.367H606.701C610.448 137.367 613.485 140.404 613.485 144.151V360.814C613.484 364.56 610.447 367.598 606.701 367.598Z" fill="white"/>
</mask>
<g mask="url(#mask9_26_3720)">
<path d="M621.167 137.367H463.116V161.245H621.167V137.367Z" fill="#686DE0"/>
</g>
<mask id="mask10_26_3720" style="mask-type:luminance" maskUnits="userSpaceOnUse" x="475" y="137" width="139" height="231">
<path d="M606.701 367.598H482.123C478.377 367.598 475.339 364.561 475.339 360.815V144.151C475.339 140.404 478.376 137.367 482.123 137.367H606.701C610.448 137.367 613.485 140.404 613.485 144.151V360.814C613.484 364.56 610.447 367.598 606.701 367.598Z" fill="white"/>
</mask>
<g mask="url(#mask10_26_3720)">
<path d="M619.305 329.155H453.893V377.112H619.305V329.155Z" fill="#F6E58D"/>
</g>
<path d="M521.611 340.314H486.994V343.253H521.611V340.314Z" fill="white"/>
<path d="M505.926 345.963H486.994V348.902H505.926V345.963Z" fill="white"/>
<path d="M498.037 351.612H486.994V354.551H498.037V351.612Z" fill="white"/>
<path d="M576.973 340.314H542.356V343.253H576.973V340.314Z" fill="white"/>
<path d="M561.288 345.963H542.356V348.902H561.288V345.963Z" fill="white"/>
<path d="M553.399 351.612H542.356V354.551H553.399V351.612Z" fill="white"/>
<path d="M490.5 148.406C490.5 150.002 489.206 151.296 487.61 151.296C486.014 151.296 484.72 150.002 484.72 148.406C484.72 146.81 486.014 145.516 487.61 145.516C489.206 145.516 490.5 146.81 490.5 148.406Z" fill="#EB4D4B"/>
<path d="M502.919 148.406C502.919 150.002 501.625 151.296 500.029 151.296C498.433 151.296 497.139 150.002 497.139 148.406C497.139 146.81 498.433 145.516 500.029 145.516C501.625 145.516 502.919 146.81 502.919 148.406Z" fill="#F9CA24"/>
<path d="M515.338 148.406C515.338 150.002 514.044 151.296 512.448 151.296C510.852 151.296 509.558 150.002 509.558 148.406C509.558 146.81 510.852 145.516 512.448 145.516C514.044 145.516 515.338 146.81 515.338 148.406Z" fill="#F9CA24"/>
<path d="M648.709 190.682V325.108H700.256L671.703 200.284L648.709 190.682Z" fill="#686DE0"/>
<g opacity="0.1">
<path d="M620.681 235.912L625.526 284.427L620.681 315.506V235.912Z" fill="black"/>
<path d="M613.208 276.657C613.208 276.657 623.378 277.605 626.979 273.246C626.979 273.246 645.614 286.133 666.271 286.512C686.928 286.891 689.645 278.718 689.645 278.718L688.104 271.98L626.98 269.014L613.209 270.804L613.208 276.657Z" fill="black"/>
</g>
<path d="M648.709 190.682L658.881 192.482C670.286 194.501 679.799 202.35 683.947 213.164L699.812 254.527H664.47L648.709 190.682Z" fill="#686DE0"/>
<path d="M664.47 254.528L657.052 224.478" stroke="#130F40" stroke-width="0.5" stroke-miterlimit="10" stroke-linecap="round" stroke-linejoin="round"/>
<path d="M664.47 254.528H626.978V269.013C626.978 269.013 642.392 278.868 668.418 279.878C694.444 280.889 693.686 254.527 693.686 254.527H664.47V254.528Z" fill="#FFC2BD"/>
<path d="M626.979 254.528C626.979 254.528 625.716 248.925 616.746 248.925C607.776 248.925 603.101 250.315 603.354 252.463C603.607 254.611 608.787 254.528 608.787 254.528C608.787 254.528 602.596 254.358 602.217 257.011C601.838 259.664 608.66 259.79 608.66 259.79C608.66 259.79 603.986 260.295 604.112 262.57C604.239 264.844 608.534 264.718 608.534 264.718C608.534 264.718 605.628 265.449 605.628 267.218C605.628 268.987 621.041 274.952 626.979 269.014V254.528Z" fill="#FFC2BD"/>
<path d="M608.786 254.528L620.03 254.105" stroke="#FF7979" stroke-width="0.5" stroke-miterlimit="10" stroke-linecap="round" stroke-linejoin="round"/>
<path d="M608.659 259.79L620.03 260.043" stroke="#FF7979" stroke-width="0.5" stroke-miterlimit="10" stroke-linecap="round" stroke-linejoin="round"/>
<path d="M608.533 264.717L620.03 265.665" stroke="#FF7979" stroke-width="0.5" stroke-miterlimit="10" stroke-linecap="round" stroke-linejoin="round"/>
<path d="M620.681 249.358C620.681 249.358 619.525 237.239 615.798 237.05C612.071 236.86 613.966 250.505 613.966 250.505L620.681 249.358Z" fill="#FFC2BD"/>
<path d="M613.484 248.994L618.704 248.925" stroke="#FF7979" stroke-width="0.5" stroke-miterlimit="10" stroke-linecap="round" stroke-linejoin="round"/>
<path opacity="0.1" d="M655.532 325.108L693.688 334.929L692.349 325.108H655.532Z" fill="black"/>
<path opacity="0.1" d="M668.166 254.316L690.974 267.217C690.974 267.217 693.939 262.531 693.686 254.527L668.166 254.316Z" fill="black"/>
<path d="M605.248 440.583L603.732 459.155H613.484L620.03 440.583H605.248Z" fill="#FFC2BD"/>
<path d="M674.625 440.583L679.839 459.155H689.591L689.406 440.583H674.625Z" fill="#FFC2BD"/>
<path opacity="0.1" d="M604.846 445.508H618.294L620.03 440.583H605.248L604.846 445.508Z" fill="black"/>
<path opacity="0.1" d="M676.008 445.508H689.591L689.406 440.583H674.625L676.008 445.508Z" fill="black"/>
<path d="M637.992 167.815L647.363 190.682C647.363 190.682 644.148 196.209 634.695 196.209C625.242 196.209 622.727 190.682 622.727 190.682L625.033 178.774L637.992 167.815Z" fill="#FFC2BD"/>
<path opacity="0.1" d="M624.322 182.443C624.322 182.443 626.965 183.535 631.364 181.523C637.992 178.491 637.992 167.815 637.992 167.815L625.032 178.774L624.322 182.443Z" fill="black"/>
<path d="M626.875 178.933C633.015 178.933 637.993 173.955 637.993 167.815C637.993 161.675 633.015 156.697 626.875 156.697C620.735 156.697 615.757 161.675 615.757 167.815C615.757 173.955 620.735 178.933 626.875 178.933Z" fill="#FFC2BD"/>
<path d="M633.349 163.519C633.349 163.519 641.141 157.644 643.605 161.34C646.069 165.035 635.551 167.815 635.551 167.815L633.349 163.519Z" fill="#FFC2BD"/>
<path d="M641.236 162.098L636.593 163.967" stroke="#FF7979" stroke-width="0.5" stroke-miterlimit="10" stroke-linecap="round" stroke-linejoin="round"/>
<path d="M622.195 167.057C622.195 170.406 619.48 173.121 616.131 173.121C612.782 173.121 610.067 170.406 610.067 167.057C610.067 163.708 612.782 160.993 616.131 160.993C619.48 160.993 622.195 163.708 622.195 167.057Z" stroke="white" stroke-miterlimit="10"/>
<path d="M635.99 167.057C635.99 170.406 633.275 173.121 629.926 173.121C626.577 173.121 623.862 170.406 623.862 167.057C623.862 163.708 626.577 160.993 629.926 160.993C633.275 160.992 635.99 163.708 635.99 167.057Z" stroke="white" stroke-miterlimit="10"/>
<path d="M623.043 174.258L626.328 173.753C626.328 173.753 625.38 176.469 623.043 174.258Z" fill="white"/>
<path d="M627.496 168.115C627.496 168.115 629.344 167.073 631.476 168.115" stroke="#FF7979" stroke-width="0.5" stroke-miterlimit="10" stroke-linecap="round" stroke-linejoin="round"/>
<path d="M616.893 168.115C616.893 168.115 618.741 167.073 620.873 168.115" stroke="#FF7979" stroke-width="0.5" stroke-miterlimit="10" stroke-linecap="round" stroke-linejoin="round"/>
<path d="M691.778 462.17C691.778 460.505 690.428 459.155 688.763 459.155H679.519C679.519 459.155 666.544 458.586 666.544 469.01H691.778V462.17Z" fill="#DFF9FB"/>
<path d="M667.09 466.546H691.778" stroke="#7ED6DF" stroke-width="0.5" stroke-miterlimit="10" stroke-linecap="round" stroke-linejoin="round"/>
<path d="M674.625 459.702L679.161 466.546" stroke="#7ED6DF" stroke-width="0.5" stroke-miterlimit="10" stroke-linecap="round" stroke-linejoin="round"/>
<path d="M678.02 459.32L680.508 463.124" stroke="#7ED6DF" stroke-width="0.5" stroke-miterlimit="10" stroke-linecap="round" stroke-linejoin="round"/>
<path d="M681.649 459.32L684.136 463.124" stroke="#7ED6DF" stroke-width="0.5" stroke-miterlimit="10" stroke-linecap="round" stroke-linejoin="round"/>
<path opacity="0.1" d="M658.122 254.528V230.985L664.47 254.528H658.122Z" fill="black"/>
<path opacity="0.05" d="M225.51 465.215C225.51 468.41 188.052 471 141.846 471C95.6401 471 58.1831 468.41 58.1831 465.215C58.1831 462.02 95.6401 459.43 141.846 459.43C188.052 459.43 225.51 462.02 225.51 465.215Z" fill="#130F40"/>
<path d="M100.846 366.914V441.362" stroke="#130F40" stroke-width="0.75" stroke-miterlimit="10" stroke-linecap="round" stroke-linejoin="round"/>
<path d="M100.846 384.462C103.645 384.462 105.913 386.731 105.913 389.529V460.15C105.913 462.948 103.644 465.217 100.846 465.217C98.0471 465.217 95.7791 462.948 95.7791 460.15V389.529C95.7791 386.731 98.0471 384.462 100.846 384.462Z" fill="#FFBE76"/>
<path d="M74.056 417.209H129.844" stroke="#130F40" stroke-width="0.75" stroke-miterlimit="10" stroke-linecap="round" stroke-linejoin="round"/>
<path d="M85.119 361.354L69.118 441.82" stroke="#130F40" stroke-width="0.75" stroke-miterlimit="10" stroke-linecap="round" stroke-linejoin="round"/>
<path d="M80.215 386.013C82.96 386.559 84.7421 389.226 84.1961 391.971L70.423 461.235C69.877 463.98 67.21 465.762 64.465 465.217C61.72 464.671 59.9381 462.004 60.4831 459.259L74.256 389.995C74.803 387.25 77.47 385.467 80.215 386.013Z" fill="#FFBE76"/>
<path d="M117.478 361.354L133.479 441.82" stroke="#130F40" stroke-width="0.75" stroke-miterlimit="10" stroke-linecap="round" stroke-linejoin="round"/>
<path d="M122.381 386.013C119.636 386.559 117.854 389.226 118.4 391.971L132.173 461.235C132.719 463.98 135.386 465.762 138.131 465.217C140.876 464.671 142.658 462.004 142.113 459.259L128.34 389.995C127.794 387.25 125.126 385.467 122.381 386.013Z" fill="#FFBE76"/>
<path d="M45.971 271.694H104.089V349.78C104.089 349.78 70.735 356.542 54.358 343.716C37.981 330.889 45.971 271.694 45.971 271.694Z" fill="#F6E58D"/>
<path d="M45.9711 271.694L38.9201 312.21C32.7141 347.872 63.5681 379.078 99.2741 373.128C112.047 370.999 122.688 368.147 127.087 364.339L82.9541 356.406C63.7291 350.997 50.0071 334.049 48.7171 314.119L45.9711 271.694Z" fill="#FFBE76"/>
<path d="M97.303 236.919L94.718 243.226L94.822 333.443L119.886 334.157L119.355 243.226L116.717 236.919H97.303Z" fill="white"/>
<path d="M88.3871 242.072C88.3871 242.072 92.9811 253.443 106.141 253.443C119.301 253.443 125.539 245.357 125.539 245.357" stroke="#7ED6DF" stroke-width="0.5" stroke-miterlimit="10" stroke-linecap="round" stroke-linejoin="round"/>
<path d="M119.302 243.226V337.507H151.577L153.03 272.473C153.03 272.473 146.736 256.284 138.482 246.774C133.019 240.48 125.052 236.919 116.718 236.919L119.302 243.226Z" fill="#F0932B"/>
<path d="M127.418 333.443H189.504C199.337 333.443 207.508 341.021 208.248 350.825L213.791 424.237H170.778L159.683 364.339H123.537L127.418 333.443Z" fill="#4834D4"/>
<path d="M193.167 424.237L187.221 352.336C186.864 348.013 183.251 344.687 178.913 344.687H145.034" stroke="#130F40" stroke-width="0.5" stroke-miterlimit="10" stroke-linecap="round" stroke-linejoin="round"/>
<path d="M168.664 436.858H219L217.654 424.237H167.318L168.664 436.858Z" fill="#7ED6DF"/>
<path opacity="0.1" d="M195.039 334.157L174.839 360.227L166.441 400.822L159.032 334.157H195.039Z" fill="black"/>
<path d="M94.822 333.443H159.813C167.547 333.443 173.549 340.19 172.648 347.871L163.695 424.237H120.682L127.086 364.339H90.941L94.822 333.443Z" fill="#686DE0"/>
<path d="M144.576 424.237L154.758 355.967C155.644 350.026 151.042 344.686 145.035 344.686H94.718" stroke="#130F40" stroke-width="0.5" stroke-miterlimit="10" stroke-linecap="round" stroke-linejoin="round"/>
<path d="M165.707 436.858H115.371L116.717 424.237H167.053L165.707 436.858Z" fill="#7ED6DF"/>
<path opacity="0.1" d="M94.822 333.443L130.392 356.942L135.646 349.867L134.079 358.205L139.117 364.339L131.84 363.259L134.079 369.828L124.422 389.266L127.087 364.339H94.718L94.822 333.443Z" fill="black"/>
<path d="M134.079 269.007L139.117 308.68" stroke="#130F40" stroke-width="0.5" stroke-miterlimit="10" stroke-linecap="round" stroke-linejoin="round"/>
<path d="M94.7181 243.226V387.011H62.4441V269.002C62.4441 269.002 67.2851 256.284 75.5391 246.774C81.0021 240.48 88.9691 236.919 97.3031 236.919L94.7181 243.226Z" fill="#F0932B"/>
<path opacity="0.1" d="M62.4441 315.564V323.17C62.4441 323.17 64.7181 331.674 75.5831 334.959C83.3911 337.32 94.7181 336.475 94.7181 336.475V323.336L62.4441 315.564Z" fill="black"/>
<path d="M86.1111 239.158C65.5791 248.242 52.3361 268.582 52.3361 291.034C52.3361 310.269 67.9291 325.862 87.1641 325.862H119.886V289.034L84.4291 290.546L86.1111 239.158Z" fill="#F0932B"/>
<path d="M94.718 325.862H87.165" stroke="#130F40" stroke-width="0.5" stroke-miterlimit="10" stroke-linecap="round" stroke-linejoin="round"/>
<path d="M94.7181 290.107H79.1211" stroke="#130F40" stroke-width="0.5" stroke-miterlimit="10" stroke-linecap="round" stroke-linejoin="round"/>
<path d="M86.7451 290.107L88.3871 269.002" stroke="#130F40" stroke-width="0.5" stroke-miterlimit="10" stroke-linecap="round" stroke-linejoin="round"/>
<path d="M112.156 289.363V325.862" stroke="#130F40" stroke-width="0.5" stroke-miterlimit="10" stroke-linecap="round" stroke-linejoin="round"/>
<path d="M119.886 290.107L129.277 289.364L140.648 286.697C140.648 286.697 143.554 293.267 139.006 297.057C134.458 300.847 129.909 299.868 129.909 299.868L119.222 305.74L119.886 290.107Z" fill="#FFC2BD"/>
<path d="M135.646 299.102C135.646 299.102 140.735 308.019 143.673 307.613C146.612 307.207 139.116 299.394 139.116 299.394C139.116 299.394 146.964 306.216 148.859 303.942C150.754 301.668 141.561 296.362 141.561 296.362C141.561 296.362 149.081 303.439 151.355 300.975C153.629 298.511 144.571 292.845 144.571 292.845C144.571 292.845 150.994 298.542 153.268 295.888C155.542 293.235 140.647 286.697 140.647 286.697L135.646 299.102Z" fill="#FFC2BD"/>
<path d="M122.057 216.063C122.057 216.063 127.975 210.124 129.666 213.884C131.072 217.011 123.69 220.359 123.69 220.359L122.057 216.063Z" fill="#FFC2BD"/>
<path d="M127.909 214.642L124.464 216.511" stroke="#FF7979" stroke-width="0.5" stroke-miterlimit="10" stroke-linecap="round" stroke-linejoin="round"/>
<path d="M104.089 220.359L94.718 243.227C94.718 243.227 97.933 248.754 107.386 248.754C116.839 248.754 119.354 243.227 119.354 243.227L117.048 231.319L104.089 220.359Z" fill="#FFC2BD"/>
<path opacity="0.1" d="M117.907 235.819C117.907 235.819 112.595 237.69 108.733 235.251C102.571 231.359 104.089 220.359 104.089 220.359L117.049 231.318L117.907 235.819Z" fill="black"/>
<path d="M116.13 231.438C122.249 230.932 126.799 225.56 126.292 219.441C125.786 213.322 120.414 208.772 114.295 209.278C108.176 209.785 103.626 215.156 104.132 221.276C104.639 227.395 110.01 231.945 116.13 231.438Z" fill="#FFC2BD"/>
<path d="M108.733 216.063C108.733 216.063 100.941 210.188 98.477 213.884C96.013 217.58 106.531 220.359 106.531 220.359L108.733 216.063Z" fill="#FFC2BD"/>
<path d="M100.846 214.642L105.489 216.511" stroke="#FF7979" stroke-width="0.5" stroke-miterlimit="10" stroke-linecap="round" stroke-linejoin="round"/>
<path d="M119.039 226.802L115.754 226.297C115.754 226.297 116.702 229.013 119.039 226.802Z" fill="white"/>
<path d="M114.585 220.659C114.585 220.659 112.737 219.617 110.605 220.659" stroke="#FF7979" stroke-width="0.5" stroke-miterlimit="10" stroke-linecap="round" stroke-linejoin="round"/>
<path d="M125.189 220.659C125.189 220.659 123.341 219.617 121.209 220.659" stroke="#FF7979" stroke-width="0.5" stroke-miterlimit="10" stroke-linecap="round" stroke-linejoin="round"/>
<path d="M110.137 213.925L107.185 212.663" stroke="#130F40" stroke-width="0.5" stroke-miterlimit="10" stroke-linecap="round" stroke-linejoin="round"/>
<path d="M108.733 214.752L106.142 213.925" stroke="#130F40" stroke-width="0.5" stroke-miterlimit="10" stroke-linecap="round" stroke-linejoin="round"/>
<path d="M134.411 192.785C132.01 188.426 115.29 184.49 111.121 186.764C107.354 188.819 107.62 207.491 107.707 211.078C107.716 211.434 107.964 211.728 108.311 211.809L125.089 215.706C125.416 215.782 125.749 215.649 125.925 215.363C127.695 212.487 136.852 197.217 134.411 192.785Z" fill="#130F40"/>
<path opacity="0.1" d="M94.718 325.862L94.797 331.619L113.801 333.316L119.886 325.862L123.537 309.817L129.909 299.868L119.222 305.739L119.886 325.862H94.718Z" fill="black"/>
<path d="M205.284 330.59H139.413C137.059 330.59 135.282 328.453 135.711 326.138L145.085 275.553C145.416 273.768 146.972 272.474 148.787 272.474H214.658C217.013 272.474 218.789 274.61 218.36 276.926L208.986 327.511C208.655 329.295 207.099 330.59 205.284 330.59Z" fill="#22A6B3"/>
<path d="M207.976 330.59H142.105C139.751 330.59 137.974 328.453 138.403 326.138L147.777 275.553C148.108 273.768 149.664 272.474 151.479 272.474H217.35C219.705 272.474 221.482 274.61 221.052 276.926L211.678 327.511C211.348 329.295 209.791 330.59 207.976 330.59Z" fill="#7ED6DF"/>
<path d="M208.894 334.157H135.327V330.589H208.894C209.879 330.589 210.678 331.388 210.678 332.373C210.678 333.358 209.879 334.157 208.894 334.157Z" fill="#7ED6DF"/>
<path d="M137.333 334.157H105.873C104.888 334.157 104.089 333.358 104.089 332.373C104.089 331.388 104.888 330.589 105.873 330.589H137.333C138.318 330.589 139.117 331.388 139.117 332.373C139.117 333.358 138.318 334.157 137.333 334.157Z" fill="#22A6B3"/>
<mask id="mask11_26_3720" style="mask-type:luminance" maskUnits="userSpaceOnUse" x="135" y="330" width="76" height="5">
<path d="M208.894 334.157H135.327V330.589H208.894C209.879 330.589 210.678 331.388 210.678 332.373C210.678 333.358 209.879 334.157 208.894 334.157Z" fill="white"/>
</mask>
<g mask="url(#mask11_26_3720)">
<path d="M195.039 329.482H159.032V334.157H195.039V329.482Z" fill="#130F40"/>
</g>
<path d="M179.008 291.075L174.839 300.172H181.662L179.008 307.752L186.589 297.139H180.714L184.062 291.075H179.008Z" fill="white"/>
<path d="M200.276 458.378C200.276 456.713 201.626 455.363 203.291 455.363H212.535C212.535 455.363 225.51 454.795 225.51 465.218H200.276V458.378Z" fill="#F0932B"/>
<path d="M224.964 462.753H200.276" stroke="#130F40" stroke-width="0.5" stroke-miterlimit="10" stroke-linecap="round" stroke-linejoin="round"/>
<path d="M217.43 455.91L212.893 462.753" stroke="#130F40" stroke-width="0.5" stroke-miterlimit="10" stroke-linecap="round" stroke-linejoin="round"/>
<path d="M214.034 455.528L211.547 459.332" stroke="#130F40" stroke-width="0.5" stroke-miterlimit="10" stroke-linecap="round" stroke-linejoin="round"/>
<path d="M210.406 455.528L207.918 459.332" stroke="#130F40" stroke-width="0.5" stroke-miterlimit="10" stroke-linecap="round" stroke-linejoin="round"/>
<path d="M210.699 436.79L212.215 455.362H202.463L195.917 436.79H210.699Z" fill="#FFC2BD"/>
<path d="M141.322 436.79L136.108 455.362H126.356L126.541 436.79H141.322Z" fill="#FFC2BD"/>
<path d="M124.169 458.378C124.169 456.713 125.519 455.363 127.184 455.363H136.428C136.428 455.363 149.403 454.795 149.403 465.218H124.169V458.378Z" fill="#F0932B"/>
<path d="M148.857 462.753H124.169" stroke="#130F40" stroke-width="0.5" stroke-miterlimit="10" stroke-linecap="round" stroke-linejoin="round"/>
<path d="M141.322 455.91L136.786 462.753" stroke="#130F40" stroke-width="0.5" stroke-miterlimit="10" stroke-linecap="round" stroke-linejoin="round"/>
<path d="M137.927 455.528L135.44 459.332" stroke="#130F40" stroke-width="0.5" stroke-miterlimit="10" stroke-linecap="round" stroke-linejoin="round"/>
<path d="M134.298 455.528L131.811 459.332" stroke="#130F40" stroke-width="0.5" stroke-miterlimit="10" stroke-linecap="round" stroke-linejoin="round"/>
<path opacity="0.05" d="M388.684 467.233C424.837 467.233 454.144 463.197 454.144 458.218C454.144 453.239 424.837 449.203 388.684 449.203C352.531 449.203 323.224 453.239 323.224 458.218C323.224 463.197 352.531 467.233 388.684 467.233Z" fill="#130F40"/>
<path d="M395.876 311.231H381.493C362.409 311.231 346.939 326.701 346.939 345.785V394.722H430.43V345.785C430.43 326.701 414.96 311.231 395.876 311.231Z" fill="#686DE0"/>
<path d="M377.192 269.764C377.192 269.764 378.776 260.958 392.689 262.025C413.086 263.589 416.065 305.467 416.065 305.467H361.076C361.076 305.467 361.075 266.876 377.192 269.764Z" fill="#130F40"/>
<path d="M395.248 292.812L401.95 311.438C401.95 311.438 399.691 318.121 388.261 318.121C376.832 318.121 375.419 311.438 375.419 311.438L381.977 292.812H395.248Z" fill="#FFC2BD"/>
<path d="M396.387 287.143C396.387 287.143 405.808 280.04 408.786 284.508C411.764 288.976 399.048 292.336 399.048 292.336L396.387 287.143Z" fill="#FFC2BD"/>
<path d="M405.922 285.425L400.309 287.685" stroke="#FF7979" stroke-width="0.5" stroke-miterlimit="10" stroke-linecap="round" stroke-linejoin="round"/>
<path d="M381.113 287.143C381.113 287.143 371.692 280.04 368.713 284.508C365.735 288.976 378.451 292.336 378.451 292.336L381.113 287.143Z" fill="#FFC2BD"/>
<path d="M371.578 285.425L377.192 287.685" stroke="#FF7979" stroke-width="0.5" stroke-miterlimit="10" stroke-linecap="round" stroke-linejoin="round"/>
<path opacity="0.1" d="M379.839 298.883L379.097 300.991C379.097 300.991 380.982 306.72 388.684 306.72C396.386 306.72 398.191 300.991 398.191 300.991L397.5 298.883H379.839Z" fill="black"/>
<path d="M402.03 291.51C402.952 284.143 397.728 277.424 390.361 276.502C382.995 275.58 376.275 280.804 375.353 288.171C374.431 295.538 379.656 302.257 387.022 303.179C394.389 304.101 401.108 298.877 402.03 291.51Z" fill="#FFC2BD"/>
<path d="M400.961 284.39C400.961 284.39 387.634 287.315 381.572 278.465C381.572 278.465 387.768 273.44 394.298 275.961C400.828 278.481 400.961 284.39 400.961 284.39Z" fill="#130F40"/>
<path d="M386.699 299.943L390.67 299.332C390.67 299.332 389.524 302.616 386.699 299.943Z" fill="white"/>
<path d="M395.162 292.812C395.162 293.451 394.644 293.969 394.005 293.969C393.366 293.969 392.848 293.451 392.848 292.812C392.848 292.173 393.366 291.655 394.005 291.655C394.644 291.655 395.162 292.173 395.162 292.812Z" fill="#130F40"/>
<path d="M384.52 292.812C384.52 293.451 384.002 293.969 383.363 293.969C382.724 293.969 382.206 293.451 382.206 292.812C382.206 292.173 382.724 291.655 383.363 291.655C384.002 291.655 384.52 292.173 384.52 292.812Z" fill="#130F40"/>
<path d="M392.138 285.317C392.138 285.317 394.601 283.617 397.809 284.82" stroke="#130F40" stroke-width="0.5" stroke-miterlimit="10" stroke-linecap="round" stroke-linejoin="round"/>
<path d="M385.231 285.317C385.231 285.317 382.768 283.617 379.56 284.82" stroke="#130F40" stroke-width="0.5" stroke-miterlimit="10" stroke-linecap="round" stroke-linejoin="round"/>
<path d="M387.677 290.365C387.677 294.414 384.394 297.697 380.345 297.697C376.296 297.697 373.013 294.414 373.013 290.365C373.013 286.316 376.296 283.033 380.345 283.033C384.394 283.033 387.677 286.315 387.677 290.365Z" stroke="white" stroke-miterlimit="10"/>
<path d="M404.355 290.365C404.355 294.414 401.072 297.697 397.023 297.697C392.974 297.697 389.691 294.414 389.691 290.365C389.691 286.316 392.974 283.033 397.023 283.033C401.072 283.033 404.355 286.315 404.355 290.365Z" stroke="white" stroke-miterlimit="10"/>
<path d="M374.273 311.231V387.178H326.798C326.798 387.178 339.28 311.231 374.273 311.231Z" fill="#DFF9FB"/>
<path d="M402.813 311.231V387.178H450.288C450.288 387.178 437.806 311.231 402.813 311.231Z" fill="#DFF9FB"/>
<path d="M392.273 428.006L369.44 421.238C369.44 421.238 360.82 429.458 357.66 428.006C354.5 426.553 364.843 413.947 364.843 413.947H398.331L392.273 428.006Z" fill="#FFC2BD"/>
<path d="M368.854 413.947C368.854 413.947 397.454 380.008 442.275 376.991C487.096 373.974 508.12 407.59 501.271 432.586C494.422 457.582 447.763 475.396 390.07 447.095L402.302 415.347L368.854 413.947Z" fill="#FFBE76"/>
<path d="M461.237 396.816C461.237 396.816 441.44 397.965 424.475 406.01" stroke="#130F40" stroke-width="0.5" stroke-miterlimit="10" stroke-linecap="round" stroke-linejoin="round"/>
<path d="M404.3 426.283C404.3 426.283 464.542 452.268 498.804 406.011" stroke="#130F40" stroke-width="0.5" stroke-miterlimit="10" stroke-linecap="round" stroke-linejoin="round"/>
<path d="M450.57 398.157C450.57 398.157 453.192 393.656 456.927 391.07" stroke="#130F40" stroke-width="0.5" stroke-miterlimit="10" stroke-linecap="round" stroke-linejoin="round"/>
<path d="M393.524 451.316L413.306 405.403L403.789 401.302L384.006 447.216L393.524 451.316Z" fill="#F6E58D"/>
<path d="M385.095 428.006L407.928 421.238C407.928 421.238 416.548 429.458 419.708 428.006C422.868 426.553 412.525 413.947 412.525 413.947H379.037L385.095 428.006Z" fill="#FFC2BD"/>
<path d="M408.515 413.947C408.515 413.947 379.915 380.008 335.094 376.991C290.273 373.974 269.25 407.59 276.098 432.586C282.947 457.582 329.606 475.396 387.299 447.095L375.067 415.347L408.515 413.947Z" fill="#FFBE76"/>
<path d="M316.132 396.816C316.132 396.816 335.929 397.965 352.895 406.01" stroke="#130F40" stroke-width="0.5" stroke-miterlimit="10" stroke-linecap="round" stroke-linejoin="round"/>
<path d="M373.069 426.283C373.069 426.283 312.827 452.268 278.565 406.011" stroke="#130F40" stroke-width="0.5" stroke-miterlimit="10" stroke-linecap="round" stroke-linejoin="round"/>
<path d="M326.798 398.157C326.798 398.157 324.176 393.656 320.441 391.07" stroke="#130F40" stroke-width="0.5" stroke-miterlimit="10" stroke-linecap="round" stroke-linejoin="round"/>
<path d="M393.336 447.189L373.553 401.276L364.036 405.376L383.818 451.29L393.336 447.189Z" fill="#F6E58D"/>
<mask id="mask12_26_3720" style="mask-type:luminance" maskUnits="userSpaceOnUse" x="368" y="376" width="135" height="86">
<path d="M368.854 413.947C368.854 413.947 397.454 380.008 442.275 376.991C487.096 373.974 508.12 407.59 501.271 432.586C494.422 457.582 447.763 475.396 390.07 447.095L402.302 415.347L368.854 413.947Z" fill="white"/>
</mask>
<g mask="url(#mask12_26_3720)">
<path opacity="0.1" d="M502.492 419.175C502.492 419.175 496.258 439.935 462.653 448.795C429.049 457.654 398.322 440.51 398.322 440.51L393.677 451.288C393.677 451.288 427.826 471.095 463.874 470.484C499.923 469.874 513.614 438.74 502.492 419.175Z" fill="black"/>
</g>
<mask id="mask13_26_3720" style="mask-type:luminance" maskUnits="userSpaceOnUse" x="274" y="376" width="135" height="86">
<path d="M408.515 413.947C408.515 413.947 379.915 380.008 335.094 376.991C290.273 373.974 269.25 407.59 276.098 432.586C282.947 457.582 329.606 475.396 387.299 447.095L375.067 415.347L408.515 413.947Z" fill="white"/>
</mask>
<g mask="url(#mask13_26_3720)">
<path opacity="0.1" d="M275.03 419.175C275.03 419.175 281.264 439.935 314.869 448.795C348.473 457.654 379.2 440.51 379.2 440.51L383.845 451.288C383.845 451.288 349.696 471.095 313.648 470.484C277.598 469.874 263.908 438.74 275.03 419.175Z" fill="black"/>
</g>
<path d="M388.684 436.335L393.361 447.188L388.684 449.203" stroke="#130F40" stroke-width="0.5" stroke-miterlimit="10" stroke-linecap="round" stroke-linejoin="round"/>
<path d="M388.684 426.942L393.324 425.567" stroke="#FF7979" stroke-width="0.5" stroke-miterlimit="10" stroke-linecap="round" stroke-linejoin="round"/>
<path d="M437.715 414.809H339.654C337.694 414.809 336.082 413.265 335.998 411.307L333.058 342.937C332.968 340.856 334.631 339.12 336.714 339.12H440.656C442.739 339.12 444.401 340.856 444.312 342.937L441.372 411.307C441.287 413.265 439.675 414.809 437.715 414.809Z" fill="#7ED6DF"/>
<path d="M337.499 417.787H439.869C440.691 417.787 441.358 417.12 441.358 416.298C441.358 415.475 440.691 414.809 439.869 414.809H337.499C336.677 414.809 336.01 415.476 336.01 416.298C336.01 417.121 336.677 417.787 337.499 417.787Z" fill="#7ED6DF"/>
<path d="M417.783 414.809H359.586V417.788H417.783V414.809Z" fill="#130F40"/>
<path d="M359.586 414.809H339.654" stroke="#130F40" stroke-width="0.5" stroke-miterlimit="10" stroke-linecap="round" stroke-linejoin="round"/>
<path d="M417.783 414.809H437.715" stroke="#130F40" stroke-width="0.5" stroke-miterlimit="10" stroke-linecap="round" stroke-linejoin="round"/>
<path d="M384.599 365.389L381.145 376.845H388.053L382.613 388.302L396.223 373.409H387.181L391.077 365.389H384.599Z" fill="white"/>
<mask id="mask14_26_3720" style="mask-type:luminance" maskUnits="userSpaceOnUse" x="333" y="339" width="112" height="76">
<path d="M437.715 414.809H339.654C337.694 414.809 336.082 413.265 335.998 411.307L333.058 342.937C332.968 340.856 334.631 339.12 336.714 339.12H440.656C442.739 339.12 444.401 340.856 444.312 342.937L441.372 411.307C441.287 413.265 439.675 414.809 437.715 414.809Z" fill="white"/>
</mask>
<g mask="url(#mask14_26_3720)">
<path opacity="0.1" d="M371.868 414.809L442.196 392.116L441.359 420.308H371.868V414.809Z" fill="black"/>
</g>
<path opacity="0.1" d="M337.499 417.787C337.499 417.787 351.605 424.202 388.684 424.202C425.763 424.202 439.869 417.787 439.869 417.787H337.499Z" fill="black"/>
</g>
<defs>
<clipPath id="clip0_26_3720">
<rect width="750" height="500" fill="white"/>
</clipPath>
</defs>
</svg>
